<mxfile host="app.diagrams.net" agent="Mozilla/5.0 (Windows NT 10.0; Win64; x64) AppleWebKit/537.36 (KHTML, like Gecko) Chrome/135.0.0.0 Safari/537.36" version="26.2.13">
  <diagram name="Page-1" id="_IHIbdHKwVVQBr4uxr1U">
    <mxGraphModel dx="3905" dy="2333" grid="1" gridSize="10" guides="1" tooltips="1" connect="1" arrows="1" fold="1" page="1" pageScale="0.5" pageWidth="850" pageHeight="1100" math="0" shadow="0">
      <root>
        <mxCell id="0" />
        <mxCell id="1" parent="0" />
        <mxCell id="GtYsG2Aw3nbuE8PqTHed-187" value="Room Services Member" style="rounded=0;whiteSpace=wrap;html=1;" parent="1" vertex="1">
          <mxGeometry x="700" y="-150" width="120" height="60" as="geometry" />
        </mxCell>
        <mxCell id="GtYsG2Aw3nbuE8PqTHed-188" value="" style="ellipse;whiteSpace=wrap;html=1;" parent="1" vertex="1">
          <mxGeometry x="840" y="-280" width="180" height="105" as="geometry" />
        </mxCell>
        <mxCell id="GtYsG2Aw3nbuE8PqTHed-189" value="" style="endArrow=none;html=1;rounded=0;exitX=1;exitY=1;exitDx=0;exitDy=0;entryX=0;entryY=0;entryDx=0;entryDy=0;" parent="1" source="GtYsG2Aw3nbuE8PqTHed-200" target="uUB0w8t6sRdYOBI_8mLG-2" edge="1">
          <mxGeometry width="50" height="50" relative="1" as="geometry">
            <mxPoint x="620" y="-73" as="sourcePoint" />
            <mxPoint x="480" y="-200" as="targetPoint" />
          </mxGeometry>
        </mxCell>
        <mxCell id="GtYsG2Aw3nbuE8PqTHed-190" value="" style="endArrow=none;html=1;rounded=0;entryX=0.236;entryY=0.884;entryDx=0;entryDy=0;entryPerimeter=0;exitX=1;exitY=0;exitDx=0;exitDy=0;" parent="1" source="GtYsG2Aw3nbuE8PqTHed-187" target="GtYsG2Aw3nbuE8PqTHed-188" edge="1">
          <mxGeometry width="50" height="50" relative="1" as="geometry">
            <mxPoint x="470" y="-180" as="sourcePoint" />
            <mxPoint x="390" y="-250" as="targetPoint" />
          </mxGeometry>
        </mxCell>
        <mxCell id="GtYsG2Aw3nbuE8PqTHed-191" value="&lt;strong data-end=&quot;233&quot; data-start=&quot;219&quot;&gt;id&lt;/strong&gt; (inherited from USERâ€™s user_id)" style="text;html=1;align=center;verticalAlign=middle;whiteSpace=wrap;rounded=0;" parent="1" vertex="1">
          <mxGeometry x="900" y="-230" width="60" height="30" as="geometry" />
        </mxCell>
        <mxCell id="GtYsG2Aw3nbuE8PqTHed-192" value="Id&amp;nbsp;" style="ellipse;whiteSpace=wrap;html=1;" parent="1" vertex="1">
          <mxGeometry x="1320" y="-247.5" width="120" height="80" as="geometry" />
        </mxCell>
        <mxCell id="GtYsG2Aw3nbuE8PqTHed-193" value="" style="endArrow=none;html=1;rounded=0;exitX=0.991;exitY=0.649;exitDx=0;exitDy=0;exitPerimeter=0;" parent="1" source="uUB0w8t6sRdYOBI_8mLG-1" target="GtYsG2Aw3nbuE8PqTHed-192" edge="1">
          <mxGeometry width="50" height="50" relative="1" as="geometry">
            <mxPoint x="1262.1200000000003" y="-251.33999999999992" as="sourcePoint" />
            <mxPoint x="690" y="-150" as="targetPoint" />
          </mxGeometry>
        </mxCell>
        <mxCell id="GtYsG2Aw3nbuE8PqTHed-194" value="&lt;span style=&quot;color: rgb(0, 0, 0); font-family: Helvetica; font-size: 12px; font-style: normal; font-variant-ligatures: normal; font-variant-caps: normal; font-weight: 400; letter-spacing: normal; orphans: 2; text-align: center; text-indent: 0px; text-transform: none; widows: 2; word-spacing: 0px; -webkit-text-stroke-width: 0px; white-space: normal; background-color: rgb(251, 251, 251); text-decoration-thickness: initial; text-decoration-style: initial; text-decoration-color: initial; float: none; display: inline !important;&quot;&gt;password&lt;/span&gt;" style="ellipse;whiteSpace=wrap;html=1;" parent="1" vertex="1">
          <mxGeometry x="690" y="-310" width="120" height="80" as="geometry" />
        </mxCell>
        <mxCell id="GtYsG2Aw3nbuE8PqTHed-195" value="name" style="ellipse;whiteSpace=wrap;html=1;" parent="1" vertex="1">
          <mxGeometry x="500" y="-285" width="120" height="80" as="geometry" />
        </mxCell>
        <mxCell id="GtYsG2Aw3nbuE8PqTHed-196" value="" style="endArrow=none;html=1;rounded=0;entryX=0.25;entryY=0;entryDx=0;entryDy=0;" parent="1" source="GtYsG2Aw3nbuE8PqTHed-195" target="GtYsG2Aw3nbuE8PqTHed-187" edge="1">
          <mxGeometry width="50" height="50" relative="1" as="geometry">
            <mxPoint x="600" y="-205" as="sourcePoint" />
            <mxPoint x="720" y="-190" as="targetPoint" />
          </mxGeometry>
        </mxCell>
        <mxCell id="GtYsG2Aw3nbuE8PqTHed-197" value="" style="endArrow=none;html=1;rounded=0;exitX=0.5;exitY=1;exitDx=0;exitDy=0;" parent="1" source="GtYsG2Aw3nbuE8PqTHed-194" edge="1">
          <mxGeometry width="50" height="50" relative="1" as="geometry">
            <mxPoint x="730" y="-25" as="sourcePoint" />
            <mxPoint x="760" y="-150" as="targetPoint" />
          </mxGeometry>
        </mxCell>
        <mxCell id="GtYsG2Aw3nbuE8PqTHed-199" value="" style="endArrow=none;html=1;rounded=0;exitX=0.693;exitY=0.024;exitDx=0;exitDy=0;exitPerimeter=0;entryX=0;entryY=0.75;entryDx=0;entryDy=0;" parent="1" source="GtYsG2Aw3nbuE8PqTHed-201" target="uUB0w8t6sRdYOBI_8mLG-1" edge="1">
          <mxGeometry width="50" height="50" relative="1" as="geometry">
            <mxPoint x="750" y="-30" as="sourcePoint" />
            <mxPoint x="1190.3240104687661" y="-283.3486268152186" as="targetPoint" />
          </mxGeometry>
        </mxCell>
        <mxCell id="GtYsG2Aw3nbuE8PqTHed-200" value="&lt;span style=&quot;color: rgba(0, 0, 0, 0); font-family: monospace; font-size: 0px; text-align: start; text-wrap-mode: nowrap;&quot;&gt;%3CmxGraphModel%3E%3Croot%3E%3CmxCell%20id%3D%220%22%2F%3E%3CmxCell%20id%3D%221%22%20parent%3D%220%22%2F%3E%3CmxCell%20id%3D%222%22%20value%3D%22Room%20Requests%20IDS%22%20style%3D%22ellipse%3BwhiteSpace%3Dwrap%3Bhtml%3D1%3B%22%20vertex%3D%221%22%20parent%3D%221%22%3E%3CmxGeometry%20x%3D%22350%22%20y%3D%222040%22%20width%3D%22120%22%20height%3D%2280%22%20as%3D%22geometry%22%2F%3E%3C%2FmxCell%3E%3C%2Froot%3E%3C%2FmxGraphModel%3E&lt;/span&gt;&lt;span style=&quot;color: rgba(0, 0, 0, 0); font-family: monospace; font-size: 0px; text-align: start; text-wrap-mode: nowrap;&quot;&gt;%3CmxGraphModel%3E%3Croot%3E%3CmxCell%20id%3D%220%22%2F%3E%3CmxCell%20id%3D%221%22%20parent%3D%220%22%2F%3E%3CmxCell%20id%3D%222%22%20value%3D%22Room%20Requests%20IDS%22%20style%3D%22ellipse%3BwhiteSpace%3Dwrap%3Bhtml%3D1%3B%22%20vertex%3D%221%22%20parent%3D%221%22%3E%3CmxGeometry%20x%3D%22350%22%20y%3D%222040%22%20width%3D%22120%22%20height%3D%2280%22%20as%3D%22geometry%22%2F%3E%3C%2FmxCell%3E%3C%2Froot%3E%3C%2FmxGraphModel%3E&lt;/span&gt;&amp;nbsp;Requests IDS" style="ellipse;whiteSpace=wrap;html=1;" parent="1" vertex="1">
          <mxGeometry x="300" y="-10" width="200" height="120" as="geometry" />
        </mxCell>
        <mxCell id="GtYsG2Aw3nbuE8PqTHed-201" value="type of report" style="ellipse;whiteSpace=wrap;html=1;" parent="1" vertex="1">
          <mxGeometry x="1063" y="-255" width="120" height="80" as="geometry" />
        </mxCell>
        <mxCell id="GtYsG2Aw3nbuE8PqTHed-203" value="Cleaning Supplies Requests IDS" style="ellipse;whiteSpace=wrap;html=1;" parent="1" vertex="1">
          <mxGeometry x="920" y="-140" width="120" height="80" as="geometry" />
        </mxCell>
        <mxCell id="GtYsG2Aw3nbuE8PqTHed-204" value="" style="endArrow=none;html=1;rounded=0;entryX=0;entryY=0.5;entryDx=0;entryDy=0;exitX=1;exitY=0.75;exitDx=0;exitDy=0;" parent="1" source="GtYsG2Aw3nbuE8PqTHed-187" target="GtYsG2Aw3nbuE8PqTHed-203" edge="1">
          <mxGeometry width="50" height="50" relative="1" as="geometry">
            <mxPoint x="840" y="-125" as="sourcePoint" />
            <mxPoint x="870" y="-75" as="targetPoint" />
          </mxGeometry>
        </mxCell>
        <mxCell id="GtYsG2Aw3nbuE8PqTHed-208" value="" style="rounded=0;whiteSpace=wrap;html=1;" parent="1" vertex="1">
          <mxGeometry x="1420" y="20" width="120" height="60" as="geometry" />
        </mxCell>
        <mxCell id="GtYsG2Aw3nbuE8PqTHed-209" value="&lt;strong data-end=&quot;376&quot; data-start=&quot;360&quot;&gt;PROFESSOR&lt;/strong&gt;" style="text;html=1;align=center;verticalAlign=middle;whiteSpace=wrap;rounded=0;" parent="1" vertex="1">
          <mxGeometry x="1450" y="40" width="60" height="30" as="geometry" />
        </mxCell>
        <mxCell id="GtYsG2Aw3nbuE8PqTHed-210" value="" style="ellipse;whiteSpace=wrap;html=1;" parent="1" vertex="1">
          <mxGeometry x="1580" y="-135" width="180" height="105" as="geometry" />
        </mxCell>
        <mxCell id="GtYsG2Aw3nbuE8PqTHed-211" value="" style="endArrow=none;html=1;rounded=0;entryX=0.24;entryY=0.941;entryDx=0;entryDy=0;entryPerimeter=0;exitX=1;exitY=0;exitDx=0;exitDy=0;" parent="1" source="GtYsG2Aw3nbuE8PqTHed-208" target="GtYsG2Aw3nbuE8PqTHed-210" edge="1">
          <mxGeometry width="50" height="50" relative="1" as="geometry">
            <mxPoint x="840" y="-350" as="sourcePoint" />
            <mxPoint x="760" y="-420" as="targetPoint" />
          </mxGeometry>
        </mxCell>
        <mxCell id="GtYsG2Aw3nbuE8PqTHed-212" value="&lt;strong data-end=&quot;420&quot; data-start=&quot;404&quot;&gt;professor id&lt;/strong&gt;" style="text;html=1;align=center;verticalAlign=middle;whiteSpace=wrap;rounded=0;" parent="1" vertex="1">
          <mxGeometry x="1640" y="-100" width="60" height="30" as="geometry" />
        </mxCell>
        <mxCell id="GtYsG2Aw3nbuE8PqTHed-215" value="Room Report ID" style="ellipse;whiteSpace=wrap;html=1;" parent="1" vertex="1">
          <mxGeometry x="1230" y="-135" width="140" height="110" as="geometry" />
        </mxCell>
        <mxCell id="GtYsG2Aw3nbuE8PqTHed-216" value="" style="endArrow=none;html=1;rounded=0;exitX=0.335;exitY=0.028;exitDx=0;exitDy=0;entryX=0.813;entryY=0.899;entryDx=0;entryDy=0;entryPerimeter=0;exitPerimeter=0;" parent="1" source="GtYsG2Aw3nbuE8PqTHed-208" target="GtYsG2Aw3nbuE8PqTHed-215" edge="1">
          <mxGeometry width="50" height="50" relative="1" as="geometry">
            <mxPoint x="1550" y="90" as="sourcePoint" />
            <mxPoint x="1604" y="105" as="targetPoint" />
            <Array as="points" />
          </mxGeometry>
        </mxCell>
        <mxCell id="GtYsG2Aw3nbuE8PqTHed-217" value="" style="ellipse;whiteSpace=wrap;html=1;" parent="1" vertex="1">
          <mxGeometry x="1680" y="-25" width="120" height="80" as="geometry" />
        </mxCell>
        <mxCell id="GtYsG2Aw3nbuE8PqTHed-218" value="Professor_password" style="text;html=1;align=center;verticalAlign=middle;whiteSpace=wrap;rounded=0;" parent="1" vertex="1">
          <mxGeometry x="1710" y="-5" width="60" height="30" as="geometry" />
        </mxCell>
        <mxCell id="GtYsG2Aw3nbuE8PqTHed-219" value="professsor_name" style="ellipse;whiteSpace=wrap;html=1;" parent="1" vertex="1">
          <mxGeometry x="1450" y="-150" width="120" height="80" as="geometry" />
        </mxCell>
        <mxCell id="GtYsG2Aw3nbuE8PqTHed-220" value="" style="endArrow=none;html=1;rounded=0;entryX=0.75;entryY=0;entryDx=0;entryDy=0;" parent="1" source="GtYsG2Aw3nbuE8PqTHed-219" target="GtYsG2Aw3nbuE8PqTHed-208" edge="1">
          <mxGeometry width="50" height="50" relative="1" as="geometry">
            <mxPoint x="1480" y="80" as="sourcePoint" />
            <mxPoint x="1530" y="80" as="targetPoint" />
          </mxGeometry>
        </mxCell>
        <mxCell id="GtYsG2Aw3nbuE8PqTHed-221" value="" style="endArrow=none;html=1;rounded=0;exitX=1;exitY=0.5;exitDx=0;exitDy=0;entryX=0.065;entryY=0.761;entryDx=0;entryDy=0;entryPerimeter=0;" parent="1" source="GtYsG2Aw3nbuE8PqTHed-208" target="GtYsG2Aw3nbuE8PqTHed-217" edge="1">
          <mxGeometry width="50" height="50" relative="1" as="geometry">
            <mxPoint x="1650" y="80" as="sourcePoint" />
            <mxPoint x="1700" y="30" as="targetPoint" />
          </mxGeometry>
        </mxCell>
        <mxCell id="GtYsG2Aw3nbuE8PqTHed-222" value="Courses" style="ellipse;whiteSpace=wrap;html=1;" parent="1" vertex="1">
          <mxGeometry x="1210" y="20" width="120" height="80" as="geometry" />
        </mxCell>
        <mxCell id="GtYsG2Aw3nbuE8PqTHed-223" value="" style="endArrow=none;html=1;rounded=0;entryX=0;entryY=0.75;entryDx=0;entryDy=0;" parent="1" source="GtYsG2Aw3nbuE8PqTHed-222" target="GtYsG2Aw3nbuE8PqTHed-208" edge="1">
          <mxGeometry width="50" height="50" relative="1" as="geometry">
            <mxPoint x="1240" y="250" as="sourcePoint" />
            <mxPoint x="1270" y="190" as="targetPoint" />
          </mxGeometry>
        </mxCell>
        <mxCell id="GtYsG2Aw3nbuE8PqTHed-224" value="Office Room" style="ellipse;whiteSpace=wrap;html=1;" parent="1" vertex="1">
          <mxGeometry x="1610" y="110" width="120" height="80" as="geometry" />
        </mxCell>
        <mxCell id="GtYsG2Aw3nbuE8PqTHed-225" value="" style="endArrow=none;html=1;rounded=0;exitX=1;exitY=0.75;exitDx=0;exitDy=0;entryX=0.237;entryY=0.071;entryDx=0;entryDy=0;entryPerimeter=0;" parent="1" source="GtYsG2Aw3nbuE8PqTHed-208" target="GtYsG2Aw3nbuE8PqTHed-224" edge="1">
          <mxGeometry width="50" height="50" relative="1" as="geometry">
            <mxPoint x="1550" y="60" as="sourcePoint" />
            <mxPoint x="1698" y="46" as="targetPoint" />
          </mxGeometry>
        </mxCell>
        <mxCell id="GtYsG2Aw3nbuE8PqTHed-226" value="" style="rounded=0;whiteSpace=wrap;html=1;" parent="1" vertex="1">
          <mxGeometry x="35" y="-130" width="120" height="60" as="geometry" />
        </mxCell>
        <mxCell id="GtYsG2Aw3nbuE8PqTHed-227" value="student" style="text;html=1;align=center;verticalAlign=middle;whiteSpace=wrap;rounded=0;" parent="1" vertex="1">
          <mxGeometry x="65" y="-110" width="60" height="30" as="geometry" />
        </mxCell>
        <mxCell id="GtYsG2Aw3nbuE8PqTHed-228" value="" style="ellipse;whiteSpace=wrap;html=1;" parent="1" vertex="1">
          <mxGeometry x="175" y="-247.5" width="180" height="105" as="geometry" />
        </mxCell>
        <mxCell id="GtYsG2Aw3nbuE8PqTHed-229" value="" style="ellipse;whiteSpace=wrap;html=1;" parent="1" vertex="1">
          <mxGeometry x="-10" y="-35" width="180" height="130" as="geometry" />
        </mxCell>
        <mxCell id="GtYsG2Aw3nbuE8PqTHed-230" value="" style="endArrow=none;html=1;rounded=0;exitX=0.78;exitY=0.093;exitDx=0;exitDy=0;exitPerimeter=0;entryX=0.5;entryY=1;entryDx=0;entryDy=0;" parent="1" source="GtYsG2Aw3nbuE8PqTHed-229" target="GtYsG2Aw3nbuE8PqTHed-226" edge="1">
          <mxGeometry width="50" height="50" relative="1" as="geometry">
            <mxPoint x="-335" y="-190" as="sourcePoint" />
            <mxPoint x="-185" y="-180" as="targetPoint" />
          </mxGeometry>
        </mxCell>
        <mxCell id="GtYsG2Aw3nbuE8PqTHed-231" value="" style="endArrow=none;html=1;rounded=0;entryX=0.236;entryY=0.884;entryDx=0;entryDy=0;entryPerimeter=0;exitX=1;exitY=0;exitDx=0;exitDy=0;" parent="1" source="GtYsG2Aw3nbuE8PqTHed-226" target="GtYsG2Aw3nbuE8PqTHed-228" edge="1">
          <mxGeometry width="50" height="50" relative="1" as="geometry">
            <mxPoint x="-195" y="-160" as="sourcePoint" />
            <mxPoint x="-275" y="-230" as="targetPoint" />
          </mxGeometry>
        </mxCell>
        <mxCell id="GtYsG2Aw3nbuE8PqTHed-232" value="&lt;strong data-end=&quot;233&quot; data-start=&quot;219&quot;&gt;student_id&lt;/strong&gt; (inherited from USERâ€™s user_id)" style="text;html=1;align=center;verticalAlign=middle;whiteSpace=wrap;rounded=0;" parent="1" vertex="1">
          <mxGeometry x="235" y="-210" width="60" height="30" as="geometry" />
        </mxCell>
        <mxCell id="GtYsG2Aw3nbuE8PqTHed-233" value="&lt;strong data-end=&quot;287&quot; data-start=&quot;270&quot;&gt;monthly_quota&lt;/strong&gt; (default: 3 hours; increases to 10 hours if the student is a JTA)" style="text;html=1;align=center;verticalAlign=middle;whiteSpace=wrap;rounded=0;" parent="1" vertex="1">
          <mxGeometry x="50" y="10" width="60" height="30" as="geometry" />
        </mxCell>
        <mxCell id="GtYsG2Aw3nbuE8PqTHed-236" value="&lt;span style=&quot;color: rgb(0, 0, 0); font-family: Helvetica; font-size: 12px; font-style: normal; font-variant-ligatures: normal; font-variant-caps: normal; font-weight: 400; letter-spacing: normal; orphans: 2; text-align: center; text-indent: 0px; text-transform: none; widows: 2; word-spacing: 0px; -webkit-text-stroke-width: 0px; white-space: normal; background-color: rgb(251, 251, 251); text-decoration-thickness: initial; text-decoration-style: initial; text-decoration-color: initial; float: none; display: inline !important;&quot;&gt;Student_password&lt;/span&gt;" style="ellipse;whiteSpace=wrap;html=1;" parent="1" vertex="1">
          <mxGeometry x="35" y="-275" width="120" height="80" as="geometry" />
        </mxCell>
        <mxCell id="GtYsG2Aw3nbuE8PqTHed-237" value="Student_name" style="ellipse;whiteSpace=wrap;html=1;" parent="1" vertex="1">
          <mxGeometry x="-130" y="-255" width="120" height="80" as="geometry" />
        </mxCell>
        <mxCell id="GtYsG2Aw3nbuE8PqTHed-238" value="" style="endArrow=none;html=1;rounded=0;entryX=0.25;entryY=0;entryDx=0;entryDy=0;" parent="1" source="GtYsG2Aw3nbuE8PqTHed-237" target="GtYsG2Aw3nbuE8PqTHed-226" edge="1">
          <mxGeometry width="50" height="50" relative="1" as="geometry">
            <mxPoint x="-65" y="-185" as="sourcePoint" />
            <mxPoint x="55" y="-170" as="targetPoint" />
          </mxGeometry>
        </mxCell>
        <mxCell id="GtYsG2Aw3nbuE8PqTHed-239" value="" style="endArrow=none;html=1;rounded=0;exitX=0.5;exitY=1;exitDx=0;exitDy=0;" parent="1" source="GtYsG2Aw3nbuE8PqTHed-236" edge="1">
          <mxGeometry width="50" height="50" relative="1" as="geometry">
            <mxPoint x="65" y="-5" as="sourcePoint" />
            <mxPoint x="95" y="-130" as="targetPoint" />
          </mxGeometry>
        </mxCell>
        <mxCell id="GtYsG2Aw3nbuE8PqTHed-284" value="&lt;strong data-end=&quot;1135&quot; data-start=&quot;1114&quot;&gt;CLEANING_STAFF&lt;/strong&gt;" style="rounded=0;whiteSpace=wrap;html=1;" parent="1" vertex="1">
          <mxGeometry x="1250" y="295" width="120" height="60" as="geometry" />
        </mxCell>
        <mxCell id="GtYsG2Aw3nbuE8PqTHed-285" value="&lt;strong data-end=&quot;1184&quot; data-start=&quot;1163&quot;&gt;cleaning_staff_id&lt;/strong&gt;&amp;nbsp;" style="ellipse;whiteSpace=wrap;html=1;" parent="1" vertex="1">
          <mxGeometry x="1450" y="165" width="120" height="80" as="geometry" />
        </mxCell>
        <mxCell id="GtYsG2Aw3nbuE8PqTHed-286" value="&amp;nbsp;handling cleaning tasks" style="ellipse;whiteSpace=wrap;html=1;" parent="1" vertex="1">
          <mxGeometry x="1860" y="215" width="120" height="80" as="geometry" />
        </mxCell>
        <mxCell id="GtYsG2Aw3nbuE8PqTHed-287" value="" style="endArrow=none;html=1;rounded=0;exitX=1;exitY=0;exitDx=0;exitDy=0;entryX=0;entryY=1;entryDx=0;entryDy=0;" parent="1" source="GtYsG2Aw3nbuE8PqTHed-284" target="GtYsG2Aw3nbuE8PqTHed-285" edge="1">
          <mxGeometry width="50" height="50" relative="1" as="geometry">
            <mxPoint x="1420" y="305" as="sourcePoint" />
            <mxPoint x="1470" y="255" as="targetPoint" />
          </mxGeometry>
        </mxCell>
        <mxCell id="GtYsG2Aw3nbuE8PqTHed-288" value="" style="endArrow=none;html=1;rounded=0;" parent="1" source="GtYsG2Aw3nbuE8PqTHed-286" target="uUB0w8t6sRdYOBI_8mLG-15" edge="1">
          <mxGeometry width="50" height="50" relative="1" as="geometry">
            <mxPoint x="1195" y="400" as="sourcePoint" />
            <mxPoint x="1585" y="290" as="targetPoint" />
          </mxGeometry>
        </mxCell>
        <mxCell id="GtYsG2Aw3nbuE8PqTHed-289" value="COURSE" style="rounded=1;whiteSpace=wrap;html=1;fontStyle=1" parent="1" vertex="1">
          <mxGeometry x="1622.5" y="510" width="120" height="60" as="geometry" />
        </mxCell>
        <mxCell id="GtYsG2Aw3nbuE8PqTHed-290" value="&lt;strong data-end=&quot;1798&quot; data-start=&quot;1782&quot;&gt;Course_Name&lt;/strong&gt;" style="ellipse;whiteSpace=wrap;html=1;" parent="1" vertex="1">
          <mxGeometry x="1670" y="340" width="120" height="80" as="geometry" />
        </mxCell>
        <mxCell id="GtYsG2Aw3nbuE8PqTHed-291" value="&lt;strong data-end=&quot;1759&quot; data-start=&quot;1744&quot;&gt;Professor&lt;/strong&gt;" style="ellipse;whiteSpace=wrap;html=1;" parent="1" vertex="1">
          <mxGeometry x="1810" y="420" width="120" height="80" as="geometry" />
        </mxCell>
        <mxCell id="GtYsG2Aw3nbuE8PqTHed-292" value="Course_Code" style="ellipse;whiteSpace=wrap;html=1;fontStyle=1" parent="1" vertex="1">
          <mxGeometry x="1795" y="330" width="120" height="80" as="geometry" />
        </mxCell>
        <mxCell id="GtYsG2Aw3nbuE8PqTHed-293" value="" style="endArrow=none;html=1;rounded=0;entryX=0.5;entryY=1;entryDx=0;entryDy=0;exitX=0.5;exitY=0;exitDx=0;exitDy=0;" parent="1" source="GtYsG2Aw3nbuE8PqTHed-289" target="GtYsG2Aw3nbuE8PqTHed-290" edge="1">
          <mxGeometry width="50" height="50" relative="1" as="geometry">
            <mxPoint x="1672.5" y="500" as="sourcePoint" />
            <mxPoint x="1522.5" y="500" as="targetPoint" />
          </mxGeometry>
        </mxCell>
        <mxCell id="GtYsG2Aw3nbuE8PqTHed-294" value="" style="endArrow=none;html=1;rounded=0;exitX=1;exitY=0.25;exitDx=0;exitDy=0;" parent="1" source="GtYsG2Aw3nbuE8PqTHed-289" target="GtYsG2Aw3nbuE8PqTHed-291" edge="1">
          <mxGeometry width="50" height="50" relative="1" as="geometry">
            <mxPoint x="1512.5" y="610" as="sourcePoint" />
            <mxPoint x="1562.5" y="560" as="targetPoint" />
          </mxGeometry>
        </mxCell>
        <mxCell id="GtYsG2Aw3nbuE8PqTHed-295" value="" style="endArrow=none;html=1;rounded=0;exitX=0.75;exitY=0;exitDx=0;exitDy=0;" parent="1" source="GtYsG2Aw3nbuE8PqTHed-289" target="GtYsG2Aw3nbuE8PqTHed-292" edge="1">
          <mxGeometry width="50" height="50" relative="1" as="geometry">
            <mxPoint x="1542.5" y="720" as="sourcePoint" />
            <mxPoint x="1592.5" y="670" as="targetPoint" />
          </mxGeometry>
        </mxCell>
        <mxCell id="GtYsG2Aw3nbuE8PqTHed-298" value="&lt;b&gt;Course_Lecture_&lt;/b&gt;&lt;div&gt;&lt;b&gt;Room&lt;/b&gt;&lt;/div&gt;" style="ellipse;whiteSpace=wrap;html=1;rounded=1;" parent="1" vertex="1">
          <mxGeometry x="1540" y="375" width="130" height="80" as="geometry" />
        </mxCell>
        <mxCell id="GtYsG2Aw3nbuE8PqTHed-299" value="" style="endArrow=none;html=1;rounded=0;entryX=1;entryY=1;entryDx=0;entryDy=0;exitX=0.25;exitY=0;exitDx=0;exitDy=0;" parent="1" source="GtYsG2Aw3nbuE8PqTHed-289" target="GtYsG2Aw3nbuE8PqTHed-298" edge="1">
          <mxGeometry width="50" height="50" relative="1" as="geometry">
            <mxPoint x="1622.5" y="560" as="sourcePoint" />
            <mxPoint x="1542.5" y="500" as="targetPoint" />
          </mxGeometry>
        </mxCell>
        <mxCell id="GtYsG2Aw3nbuE8PqTHed-302" value="Course_Tutorial_&lt;div&gt;Time&lt;/div&gt;" style="ellipse;whiteSpace=wrap;html=1;rounded=1;fontStyle=1" parent="1" vertex="1">
          <mxGeometry x="1500" y="610" width="130" height="80" as="geometry" />
        </mxCell>
        <mxCell id="GtYsG2Aw3nbuE8PqTHed-303" value="" style="endArrow=none;html=1;rounded=0;exitX=0.25;exitY=1;exitDx=0;exitDy=0;" parent="1" source="GtYsG2Aw3nbuE8PqTHed-289" target="GtYsG2Aw3nbuE8PqTHed-302" edge="1">
          <mxGeometry width="50" height="50" relative="1" as="geometry">
            <mxPoint x="1642.5" y="580" as="sourcePoint" />
            <mxPoint x="1562.5" y="520" as="targetPoint" />
          </mxGeometry>
        </mxCell>
        <mxCell id="GtYsG2Aw3nbuE8PqTHed-304" value="" style="endArrow=none;html=1;rounded=0;" parent="1" source="GtYsG2Aw3nbuE8PqTHed-284" target="GtYsG2Aw3nbuE8PqTHed-314" edge="1">
          <mxGeometry width="50" height="50" relative="1" as="geometry">
            <mxPoint x="1140" y="355" as="sourcePoint" />
            <mxPoint x="1264" y="258" as="targetPoint" />
          </mxGeometry>
        </mxCell>
        <mxCell id="GtYsG2Aw3nbuE8PqTHed-313" value="Password_" style="ellipse;whiteSpace=wrap;html=1;" parent="1" vertex="1">
          <mxGeometry x="1370" y="365" width="120" height="80" as="geometry" />
        </mxCell>
        <mxCell id="GtYsG2Aw3nbuE8PqTHed-314" value="Name" style="ellipse;whiteSpace=wrap;html=1;" parent="1" vertex="1">
          <mxGeometry x="1140" y="165" width="120" height="80" as="geometry" />
        </mxCell>
        <mxCell id="GtYsG2Aw3nbuE8PqTHed-315" value="" style="endArrow=none;html=1;rounded=0;entryX=0.925;entryY=0.959;entryDx=0;entryDy=0;entryPerimeter=0;" parent="1" source="GtYsG2Aw3nbuE8PqTHed-313" target="GtYsG2Aw3nbuE8PqTHed-284" edge="1">
          <mxGeometry width="50" height="50" relative="1" as="geometry">
            <mxPoint x="1370" y="365" as="sourcePoint" />
            <mxPoint x="1420" y="315" as="targetPoint" />
          </mxGeometry>
        </mxCell>
        <mxCell id="GtYsG2Aw3nbuE8PqTHed-317" value="&lt;font style=&quot;font-size: 22px;&quot;&gt;Request Content&lt;/font&gt;" style="ellipse;whiteSpace=wrap;html=1;" parent="1" vertex="1">
          <mxGeometry x="500" y="215" width="130" height="90" as="geometry" />
        </mxCell>
        <mxCell id="GtYsG2Aw3nbuE8PqTHed-320" value="" style="endArrow=none;html=1;rounded=0;entryX=1;entryY=1;entryDx=0;entryDy=0;exitX=0.688;exitY=0.002;exitDx=0;exitDy=0;exitPerimeter=0;" parent="1" source="GtYsG2Aw3nbuE8PqTHed-317" target="uUB0w8t6sRdYOBI_8mLG-2" edge="1">
          <mxGeometry width="50" height="50" relative="1" as="geometry">
            <mxPoint x="1202" y="602" as="sourcePoint" />
            <mxPoint x="1268" y="601" as="targetPoint" />
          </mxGeometry>
        </mxCell>
        <mxCell id="GtYsG2Aw3nbuE8PqTHed-353" value="" style="rounded=0;whiteSpace=wrap;html=1;" parent="1" vertex="1">
          <mxGeometry x="180" y="375" width="120" height="60" as="geometry" />
        </mxCell>
        <mxCell id="GtYsG2Aw3nbuE8PqTHed-354" value="&lt;strong data-end=&quot;679&quot; data-start=&quot;670&quot;&gt;TA&lt;/strong&gt;" style="text;html=1;align=center;verticalAlign=middle;whiteSpace=wrap;rounded=0;" parent="1" vertex="1">
          <mxGeometry x="210" y="325" width="60" height="160" as="geometry" />
        </mxCell>
        <mxCell id="GtYsG2Aw3nbuE8PqTHed-355" value="&lt;font style=&quot;color: rgb(255, 0, 0);&quot;&gt;&lt;strong data-end=&quot;770&quot; data-start=&quot;753&quot;&gt;monthly_quota&lt;/strong&gt; (20 hours)&lt;/font&gt;" style="ellipse;whiteSpace=wrap;html=1;" parent="1" vertex="1">
          <mxGeometry x="90" y="475" width="180" height="130" as="geometry" />
        </mxCell>
        <mxCell id="GtYsG2Aw3nbuE8PqTHed-356" value="" style="endArrow=none;html=1;rounded=0;exitX=0.78;exitY=0.093;exitDx=0;exitDy=0;exitPerimeter=0;entryX=0;entryY=1;entryDx=0;entryDy=0;" parent="1" source="GtYsG2Aw3nbuE8PqTHed-355" target="GtYsG2Aw3nbuE8PqTHed-353" edge="1">
          <mxGeometry width="50" height="50" relative="1" as="geometry">
            <mxPoint x="270" y="25" as="sourcePoint" />
            <mxPoint x="420" y="35" as="targetPoint" />
          </mxGeometry>
        </mxCell>
        <mxCell id="GtYsG2Aw3nbuE8PqTHed-357" value="&lt;strong data-end=&quot;953&quot; data-start=&quot;941&quot;&gt;ADMIN&lt;br&gt;&lt;br&gt;&lt;/strong&gt;" style="rounded=0;whiteSpace=wrap;html=1;" parent="1" vertex="1">
          <mxGeometry x="-130" y="230" width="120" height="60" as="geometry" />
        </mxCell>
        <mxCell id="GtYsG2Aw3nbuE8PqTHed-358" value="&lt;strong data-end=&quot;993&quot; data-start=&quot;981&quot;&gt;admin_id&lt;/strong&gt;&amp;nbsp;" style="ellipse;whiteSpace=wrap;html=1;" parent="1" vertex="1">
          <mxGeometry x="10" y="145" width="120" height="80" as="geometry" />
        </mxCell>
        <mxCell id="GtYsG2Aw3nbuE8PqTHed-360" value="" style="endArrow=none;html=1;rounded=0;entryX=0;entryY=1;entryDx=0;entryDy=0;" parent="1" source="GtYsG2Aw3nbuE8PqTHed-357" target="GtYsG2Aw3nbuE8PqTHed-358" edge="1">
          <mxGeometry width="50" height="50" relative="1" as="geometry">
            <mxPoint x="200" y="270" as="sourcePoint" />
            <mxPoint x="250" y="220" as="targetPoint" />
          </mxGeometry>
        </mxCell>
        <mxCell id="GtYsG2Aw3nbuE8PqTHed-366" value="" style="endArrow=none;html=1;rounded=0;exitX=1;exitY=0.25;exitDx=0;exitDy=0;" parent="1" source="GtYsG2Aw3nbuE8PqTHed-353" target="GtYsG2Aw3nbuE8PqTHed-371" edge="1">
          <mxGeometry width="50" height="50" relative="1" as="geometry">
            <mxPoint x="90" y="415" as="sourcePoint" />
            <mxPoint x="250" y="325" as="targetPoint" />
          </mxGeometry>
        </mxCell>
        <mxCell id="GtYsG2Aw3nbuE8PqTHed-369" value="TA_id" style="ellipse;whiteSpace=wrap;html=1;" parent="1" vertex="1">
          <mxGeometry x="450" y="390" width="120" height="80" as="geometry" />
        </mxCell>
        <mxCell id="GtYsG2Aw3nbuE8PqTHed-370" value="TA_name" style="ellipse;whiteSpace=wrap;html=1;" parent="1" vertex="1">
          <mxGeometry x="-10" y="410" width="120" height="80" as="geometry" />
        </mxCell>
        <mxCell id="GtYsG2Aw3nbuE8PqTHed-371" value="TA_password" style="ellipse;whiteSpace=wrap;html=1;" parent="1" vertex="1">
          <mxGeometry x="270" y="260" width="120" height="80" as="geometry" />
        </mxCell>
        <mxCell id="GtYsG2Aw3nbuE8PqTHed-372" value="" style="endArrow=none;html=1;rounded=0;" parent="1" source="GtYsG2Aw3nbuE8PqTHed-370" edge="1">
          <mxGeometry width="50" height="50" relative="1" as="geometry">
            <mxPoint x="-40" y="415" as="sourcePoint" />
            <mxPoint x="170" y="415" as="targetPoint" />
          </mxGeometry>
        </mxCell>
        <mxCell id="GtYsG2Aw3nbuE8PqTHed-373" value="" style="endArrow=none;html=1;rounded=0;exitX=1;exitY=0.75;exitDx=0;exitDy=0;" parent="1" source="GtYsG2Aw3nbuE8PqTHed-353" target="GtYsG2Aw3nbuE8PqTHed-369" edge="1">
          <mxGeometry width="50" height="50" relative="1" as="geometry">
            <mxPoint x="-40" y="525" as="sourcePoint" />
            <mxPoint x="10" y="475" as="targetPoint" />
          </mxGeometry>
        </mxCell>
        <mxCell id="GtYsG2Aw3nbuE8PqTHed-376" value="Courses" style="ellipse;whiteSpace=wrap;html=1;" parent="1" vertex="1">
          <mxGeometry x="120" y="265" width="120" height="80" as="geometry" />
        </mxCell>
        <mxCell id="GtYsG2Aw3nbuE8PqTHed-377" value="Office Room" style="ellipse;whiteSpace=wrap;html=1;" parent="1" vertex="1">
          <mxGeometry x="400" y="305" width="120" height="80" as="geometry" />
        </mxCell>
        <mxCell id="GtYsG2Aw3nbuE8PqTHed-379" value="" style="endArrow=none;html=1;rounded=0;exitX=1;exitY=0.5;exitDx=0;exitDy=0;entryX=0;entryY=1;entryDx=0;entryDy=0;" parent="1" source="GtYsG2Aw3nbuE8PqTHed-353" target="GtYsG2Aw3nbuE8PqTHed-377" edge="1">
          <mxGeometry width="50" height="50" relative="1" as="geometry">
            <mxPoint x="310" y="400" as="sourcePoint" />
            <mxPoint x="327" y="349" as="targetPoint" />
          </mxGeometry>
        </mxCell>
        <mxCell id="GtYsG2Aw3nbuE8PqTHed-380" value="" style="endArrow=none;html=1;rounded=0;exitX=0.848;exitY=0.032;exitDx=0;exitDy=0;entryX=1;entryY=0.5;entryDx=0;entryDy=0;exitPerimeter=0;" parent="1" source="GtYsG2Aw3nbuE8PqTHed-353" target="GtYsG2Aw3nbuE8PqTHed-376" edge="1">
          <mxGeometry width="50" height="50" relative="1" as="geometry">
            <mxPoint x="310" y="415" as="sourcePoint" />
            <mxPoint x="428" y="383" as="targetPoint" />
          </mxGeometry>
        </mxCell>
        <mxCell id="GtYsG2Aw3nbuE8PqTHed-384" value="&lt;strong data-end=&quot;1331&quot; data-start=&quot;1315&quot;&gt;REGISTRAR&lt;/strong&gt;" style="rounded=0;whiteSpace=wrap;html=1;" parent="1" vertex="1">
          <mxGeometry x="840" y="470" width="120" height="60" as="geometry" />
        </mxCell>
        <mxCell id="GtYsG2Aw3nbuE8PqTHed-385" value="&lt;strong data-end=&quot;1375&quot; data-start=&quot;1359&quot;&gt;registrar_id&lt;/strong&gt;&amp;nbsp;" style="ellipse;whiteSpace=wrap;html=1;" parent="1" vertex="1">
          <mxGeometry x="1030" y="340" width="160" height="120" as="geometry" />
        </mxCell>
        <mxCell id="GtYsG2Aw3nbuE8PqTHed-386" value="" style="endArrow=none;html=1;rounded=0;exitX=0.915;exitY=0.03;exitDx=0;exitDy=0;exitPerimeter=0;entryX=0.25;entryY=1;entryDx=0;entryDy=0;entryPerimeter=0;" parent="1" source="GtYsG2Aw3nbuE8PqTHed-384" target="GtYsG2Aw3nbuE8PqTHed-385" edge="1">
          <mxGeometry width="50" height="50" relative="1" as="geometry">
            <mxPoint x="1040" y="490" as="sourcePoint" />
            <mxPoint x="1090" y="450" as="targetPoint" />
          </mxGeometry>
        </mxCell>
        <mxCell id="GtYsG2Aw3nbuE8PqTHed-396" value="&lt;span style=&quot;color: rgb(0, 0, 0); font-family: Helvetica; font-size: 12px; font-style: normal; font-variant-ligatures: normal; font-variant-caps: normal; font-weight: 400; letter-spacing: normal; orphans: 2; text-align: center; text-indent: 0px; text-transform: none; widows: 2; word-spacing: 0px; -webkit-text-stroke-width: 0px; white-space: normal; background-color: rgb(251, 251, 251); text-decoration-thickness: initial; text-decoration-style: initial; text-decoration-color: initial; float: none; display: inline !important;&quot;&gt;password&lt;/span&gt;" style="ellipse;whiteSpace=wrap;html=1;" parent="1" vertex="1">
          <mxGeometry x="740" y="310" width="120" height="80" as="geometry" />
        </mxCell>
        <mxCell id="GtYsG2Aw3nbuE8PqTHed-397" value="name" style="ellipse;whiteSpace=wrap;html=1;" parent="1" vertex="1">
          <mxGeometry x="620" y="400" width="120" height="80" as="geometry" />
        </mxCell>
        <mxCell id="GtYsG2Aw3nbuE8PqTHed-398" value="" style="endArrow=none;html=1;rounded=0;entryX=0.693;entryY=1;entryDx=0;entryDy=0;entryPerimeter=0;exitX=0.388;exitY=0.014;exitDx=0;exitDy=0;exitPerimeter=0;" parent="1" source="GtYsG2Aw3nbuE8PqTHed-384" target="GtYsG2Aw3nbuE8PqTHed-396" edge="1">
          <mxGeometry width="50" height="50" relative="1" as="geometry">
            <mxPoint x="915" y="480" as="sourcePoint" />
            <mxPoint x="924" y="420" as="targetPoint" />
          </mxGeometry>
        </mxCell>
        <mxCell id="GtYsG2Aw3nbuE8PqTHed-399" value="" style="endArrow=none;html=1;rounded=0;entryX=0.922;entryY=0.759;entryDx=0;entryDy=0;entryPerimeter=0;exitX=0;exitY=0.5;exitDx=0;exitDy=0;" parent="1" source="GtYsG2Aw3nbuE8PqTHed-384" target="GtYsG2Aw3nbuE8PqTHed-397" edge="1">
          <mxGeometry width="50" height="50" relative="1" as="geometry">
            <mxPoint x="897" y="481" as="sourcePoint" />
            <mxPoint x="813" y="400" as="targetPoint" />
          </mxGeometry>
        </mxCell>
        <mxCell id="GtYsG2Aw3nbuE8PqTHed-401" value="ROOM" style="rounded=0;whiteSpace=wrap;html=1;" parent="1" vertex="1">
          <mxGeometry x="790" y="720" width="120" height="60" as="geometry" />
        </mxCell>
        <mxCell id="GtYsG2Aw3nbuE8PqTHed-402" value="&lt;strong data-end=&quot;1616&quot; data-start=&quot;1603&quot;&gt;equipment&lt;/strong&gt;" style="ellipse;whiteSpace=wrap;html=1;" parent="1" vertex="1">
          <mxGeometry x="820" y="830" width="120" height="80" as="geometry" />
        </mxCell>
        <mxCell id="GtYsG2Aw3nbuE8PqTHed-403" value="" style="endArrow=none;html=1;rounded=0;entryX=0.25;entryY=1;entryDx=0;entryDy=0;" parent="1" source="GtYsG2Aw3nbuE8PqTHed-402" target="GtYsG2Aw3nbuE8PqTHed-401" edge="1">
          <mxGeometry width="50" height="50" relative="1" as="geometry">
            <mxPoint x="750" y="870" as="sourcePoint" />
            <mxPoint x="800" y="820" as="targetPoint" />
          </mxGeometry>
        </mxCell>
        <mxCell id="GtYsG2Aw3nbuE8PqTHed-404" value="&lt;strong data-end=&quot;1656&quot; data-start=&quot;1646&quot;&gt;status&lt;/strong&gt;" style="ellipse;whiteSpace=wrap;html=1;" parent="1" vertex="1">
          <mxGeometry x="980" y="730" width="120" height="80" as="geometry" />
        </mxCell>
        <mxCell id="GtYsG2Aw3nbuE8PqTHed-405" value="" style="endArrow=none;html=1;rounded=0;" parent="1" source="GtYsG2Aw3nbuE8PqTHed-401" target="GtYsG2Aw3nbuE8PqTHed-404" edge="1">
          <mxGeometry width="50" height="50" relative="1" as="geometry">
            <mxPoint x="920" y="730" as="sourcePoint" />
            <mxPoint x="1040" y="710" as="targetPoint" />
          </mxGeometry>
        </mxCell>
        <mxCell id="GtYsG2Aw3nbuE8PqTHed-406" value="&lt;strong data-end=&quot;1563&quot; data-start=&quot;1548&quot;&gt;room_number&lt;/strong&gt;" style="ellipse;whiteSpace=wrap;html=1;" parent="1" vertex="1">
          <mxGeometry x="455" y="780" width="120" height="80" as="geometry" />
        </mxCell>
        <mxCell id="GtYsG2Aw3nbuE8PqTHed-407" value="" style="endArrow=none;html=1;rounded=0;exitX=0.303;exitY=0.975;exitDx=0;exitDy=0;entryX=0.922;entryY=0.208;entryDx=0;entryDy=0;entryPerimeter=0;exitPerimeter=0;" parent="1" source="GtYsG2Aw3nbuE8PqTHed-410" target="GtYsG2Aw3nbuE8PqTHed-406" edge="1">
          <mxGeometry width="50" height="50" relative="1" as="geometry">
            <mxPoint x="325" y="850.0000000000002" as="sourcePoint" />
            <mxPoint x="465" y="820" as="targetPoint" />
          </mxGeometry>
        </mxCell>
        <mxCell id="GtYsG2Aw3nbuE8PqTHed-408" value="&lt;b&gt;Capacity&lt;/b&gt;" style="ellipse;whiteSpace=wrap;html=1;" parent="1" vertex="1">
          <mxGeometry x="850" y="560" width="120" height="80" as="geometry" />
        </mxCell>
        <mxCell id="GtYsG2Aw3nbuE8PqTHed-409" value="" style="endArrow=none;html=1;rounded=0;entryX=0.6;entryY=0.972;entryDx=0;entryDy=0;entryPerimeter=0;exitX=0.366;exitY=0;exitDx=0;exitDy=0;exitPerimeter=0;" parent="1" source="GtYsG2Aw3nbuE8PqTHed-401" target="GtYsG2Aw3nbuE8PqTHed-408" edge="1">
          <mxGeometry width="50" height="50" relative="1" as="geometry">
            <mxPoint x="800" y="710" as="sourcePoint" />
            <mxPoint x="770" y="650" as="targetPoint" />
          </mxGeometry>
        </mxCell>
        <mxCell id="GtYsG2Aw3nbuE8PqTHed-410" value="&lt;strong data-end=&quot;1616&quot; data-start=&quot;1603&quot;&gt;Room_id&lt;/strong&gt;" style="ellipse;whiteSpace=wrap;html=1;" parent="1" vertex="1">
          <mxGeometry x="600" y="680" width="120" height="80" as="geometry" />
        </mxCell>
        <mxCell id="GtYsG2Aw3nbuE8PqTHed-411" value="" style="endArrow=none;html=1;rounded=0;entryX=0.967;entryY=0.622;entryDx=0;entryDy=0;entryPerimeter=0;exitX=0.366;exitY=-0.061;exitDx=0;exitDy=0;exitPerimeter=0;" parent="1" target="GtYsG2Aw3nbuE8PqTHed-410" edge="1">
          <mxGeometry width="50" height="50" relative="1" as="geometry">
            <mxPoint x="790" y="738" as="sourcePoint" />
            <mxPoint x="758" y="640" as="targetPoint" />
          </mxGeometry>
        </mxCell>
        <mxCell id="GtYsG2Aw3nbuE8PqTHed-412" value="" style="endArrow=none;html=1;rounded=0;entryX=0.957;entryY=0.673;entryDx=0;entryDy=0;entryPerimeter=0;exitX=0.043;exitY=0.335;exitDx=0;exitDy=0;exitPerimeter=0;" parent="1" source="GtYsG2Aw3nbuE8PqTHed-410" target="GtYsG2Aw3nbuE8PqTHed-416" edge="1">
          <mxGeometry width="50" height="50" relative="1" as="geometry">
            <mxPoint x="590" y="688" as="sourcePoint" />
            <mxPoint x="558" y="590" as="targetPoint" />
          </mxGeometry>
        </mxCell>
        <mxCell id="GtYsG2Aw3nbuE8PqTHed-413" value="Zone" style="ellipse;whiteSpace=wrap;html=1;" parent="1" vertex="1">
          <mxGeometry x="412.5" y="700" width="120" height="80" as="geometry" />
        </mxCell>
        <mxCell id="GtYsG2Aw3nbuE8PqTHed-414" value="&lt;strong data-end=&quot;1616&quot; data-start=&quot;1603&quot;&gt;Building&lt;/strong&gt;" style="ellipse;whiteSpace=wrap;html=1;" parent="1" vertex="1">
          <mxGeometry x="490" y="550" width="120" height="80" as="geometry" />
        </mxCell>
        <mxCell id="GtYsG2Aw3nbuE8PqTHed-415" value="" style="endArrow=none;html=1;rounded=0;entryX=0.753;entryY=0.958;entryDx=0;entryDy=0;entryPerimeter=0;exitX=0.364;exitY=0.008;exitDx=0;exitDy=0;exitPerimeter=0;" parent="1" source="GtYsG2Aw3nbuE8PqTHed-410" target="GtYsG2Aw3nbuE8PqTHed-414" edge="1">
          <mxGeometry width="50" height="50" relative="1" as="geometry">
            <mxPoint x="627.4800000000002" y="674.1600000000001" as="sourcePoint" />
            <mxPoint x="590.0000000000002" y="620.0000000000005" as="targetPoint" />
          </mxGeometry>
        </mxCell>
        <mxCell id="GtYsG2Aw3nbuE8PqTHed-416" value="&lt;strong data-end=&quot;1616&quot; data-start=&quot;1603&quot;&gt;Floor&lt;/strong&gt;" style="ellipse;whiteSpace=wrap;html=1;" parent="1" vertex="1">
          <mxGeometry x="390" y="610" width="120" height="80" as="geometry" />
        </mxCell>
        <mxCell id="GtYsG2Aw3nbuE8PqTHed-417" value="" style="endArrow=none;html=1;rounded=0;entryX=1;entryY=0.5;entryDx=0;entryDy=0;exitX=0.064;exitY=0.7;exitDx=0;exitDy=0;exitPerimeter=0;" parent="1" source="GtYsG2Aw3nbuE8PqTHed-410" target="GtYsG2Aw3nbuE8PqTHed-413" edge="1">
          <mxGeometry width="50" height="50" relative="1" as="geometry">
            <mxPoint x="590" y="720" as="sourcePoint" />
            <mxPoint x="500" y="697" as="targetPoint" />
          </mxGeometry>
        </mxCell>
        <mxCell id="uUB0w8t6sRdYOBI_8mLG-1" value="Report" style="rounded=0;whiteSpace=wrap;html=1;" parent="1" vertex="1">
          <mxGeometry x="1210" y="-330" width="120" height="60" as="geometry" />
        </mxCell>
        <mxCell id="uUB0w8t6sRdYOBI_8mLG-2" value="Request" style="rounded=0;whiteSpace=wrap;html=1;" parent="1" vertex="1">
          <mxGeometry x="500" y="120" width="120" height="60" as="geometry" />
        </mxCell>
        <mxCell id="uUB0w8t6sRdYOBI_8mLG-3" value="Cleaning&amp;nbsp;" style="ellipse;whiteSpace=wrap;html=1;" parent="1" vertex="1">
          <mxGeometry x="340" y="-100" width="110" height="60" as="geometry" />
        </mxCell>
        <mxCell id="uUB0w8t6sRdYOBI_8mLG-4" value="" style="endArrow=none;html=1;rounded=0;entryX=0.769;entryY=0.99;entryDx=0;entryDy=0;entryPerimeter=0;exitX=0.419;exitY=-0.036;exitDx=0;exitDy=0;exitPerimeter=0;" parent="1" source="GtYsG2Aw3nbuE8PqTHed-200" target="uUB0w8t6sRdYOBI_8mLG-3" edge="1">
          <mxGeometry width="50" height="50" relative="1" as="geometry">
            <mxPoint x="570" y="10" as="sourcePoint" />
            <mxPoint x="620" y="-40" as="targetPoint" />
          </mxGeometry>
        </mxCell>
        <mxCell id="uUB0w8t6sRdYOBI_8mLG-6" value="&lt;font style=&quot;font-size: 22px;&quot;&gt;Room change&lt;/font&gt;" style="ellipse;whiteSpace=wrap;html=1;" parent="1" vertex="1">
          <mxGeometry x="638" y="10" width="252" height="80" as="geometry" />
        </mxCell>
        <mxCell id="uUB0w8t6sRdYOBI_8mLG-8" value="" style="endArrow=none;html=1;rounded=0;entryX=0.5;entryY=1;entryDx=0;entryDy=0;exitX=1;exitY=0;exitDx=0;exitDy=0;" parent="1" source="uUB0w8t6sRdYOBI_8mLG-2" target="uUB0w8t6sRdYOBI_8mLG-6" edge="1">
          <mxGeometry width="50" height="50" relative="1" as="geometry">
            <mxPoint x="585" y="67" as="sourcePoint" />
            <mxPoint x="575" y="29" as="targetPoint" />
          </mxGeometry>
        </mxCell>
        <mxCell id="uUB0w8t6sRdYOBI_8mLG-9" value="Dynamic quota" style="ellipse;whiteSpace=wrap;html=1;" parent="1" vertex="1">
          <mxGeometry x="-250" y="110" width="120" height="80" as="geometry" />
        </mxCell>
        <mxCell id="uUB0w8t6sRdYOBI_8mLG-10" value="" style="endArrow=none;html=1;rounded=0;entryX=0.716;entryY=0.985;entryDx=0;entryDy=0;entryPerimeter=0;exitX=0.008;exitY=0.14;exitDx=0;exitDy=0;exitPerimeter=0;" parent="1" source="GtYsG2Aw3nbuE8PqTHed-357" target="uUB0w8t6sRdYOBI_8mLG-9" edge="1">
          <mxGeometry width="50" height="50" relative="1" as="geometry">
            <mxPoint x="-210" y="300" as="sourcePoint" />
            <mxPoint x="-160" y="250" as="targetPoint" />
          </mxGeometry>
        </mxCell>
        <mxCell id="uUB0w8t6sRdYOBI_8mLG-15" value="check_list" style="rounded=0;whiteSpace=wrap;html=1;" parent="1" vertex="1">
          <mxGeometry x="1675" y="240" width="120" height="60" as="geometry" />
        </mxCell>
        <mxCell id="uUB0w8t6sRdYOBI_8mLG-25" value="Content" style="ellipse;whiteSpace=wrap;html=1;" parent="1" vertex="1">
          <mxGeometry x="1330" y="-460" width="120" height="80" as="geometry" />
        </mxCell>
        <mxCell id="uUB0w8t6sRdYOBI_8mLG-26" value="" style="endArrow=none;html=1;rounded=0;entryX=0.362;entryY=0.984;entryDx=0;entryDy=0;entryPerimeter=0;exitX=1;exitY=0;exitDx=0;exitDy=0;" parent="1" source="uUB0w8t6sRdYOBI_8mLG-1" target="uUB0w8t6sRdYOBI_8mLG-25" edge="1">
          <mxGeometry width="50" height="50" relative="1" as="geometry">
            <mxPoint x="1370" y="-300" as="sourcePoint" />
            <mxPoint x="1420" y="-350" as="targetPoint" />
          </mxGeometry>
        </mxCell>
        <mxCell id="Z2MXEbsXXXG4tPmna7cn-1" value="&lt;b&gt;Course_Lecture_&lt;/b&gt;&lt;div&gt;&lt;b&gt;Time&lt;/b&gt;&lt;/div&gt;" style="ellipse;whiteSpace=wrap;html=1;rounded=1;" parent="1" vertex="1">
          <mxGeometry x="1460" y="445" width="130" height="80" as="geometry" />
        </mxCell>
        <mxCell id="Z2MXEbsXXXG4tPmna7cn-2" value="" style="endArrow=none;html=1;rounded=0;entryX=1;entryY=1;entryDx=0;entryDy=0;exitX=0;exitY=0.25;exitDx=0;exitDy=0;" parent="1" source="GtYsG2Aw3nbuE8PqTHed-289" target="Z2MXEbsXXXG4tPmna7cn-1" edge="1">
          <mxGeometry width="50" height="50" relative="1" as="geometry">
            <mxPoint x="1573" y="580" as="sourcePoint" />
            <mxPoint x="1462.5" y="570" as="targetPoint" />
          </mxGeometry>
        </mxCell>
        <mxCell id="Z2MXEbsXXXG4tPmna7cn-3" value="&lt;b&gt;Course_Tutorial_&lt;/b&gt;&lt;div&gt;&lt;b&gt;Room&lt;/b&gt;&lt;/div&gt;" style="ellipse;whiteSpace=wrap;html=1;rounded=1;" parent="1" vertex="1">
          <mxGeometry x="1430" y="540" width="130" height="80" as="geometry" />
        </mxCell>
        <mxCell id="Z2MXEbsXXXG4tPmna7cn-4" value="" style="endArrow=none;html=1;rounded=0;entryX=1;entryY=0.5;entryDx=0;entryDy=0;exitX=0;exitY=0.75;exitDx=0;exitDy=0;" parent="1" source="GtYsG2Aw3nbuE8PqTHed-289" target="Z2MXEbsXXXG4tPmna7cn-3" edge="1">
          <mxGeometry width="50" height="50" relative="1" as="geometry">
            <mxPoint x="1543" y="675" as="sourcePoint" />
            <mxPoint x="1432.5" y="665" as="targetPoint" />
          </mxGeometry>
        </mxCell>
        <mxCell id="Z2MXEbsXXXG4tPmna7cn-5" value="&lt;b&gt;TA&lt;/b&gt;" style="ellipse;whiteSpace=wrap;html=1;" parent="1" vertex="1">
          <mxGeometry x="1840" y="510" width="120" height="80" as="geometry" />
        </mxCell>
        <mxCell id="Z2MXEbsXXXG4tPmna7cn-6" value="&lt;strong data-end=&quot;1759&quot; data-start=&quot;1744&quot;&gt;JTA&lt;/strong&gt;" style="ellipse;whiteSpace=wrap;html=1;" parent="1" vertex="1">
          <mxGeometry x="1790" y="590" width="120" height="80" as="geometry" />
        </mxCell>
        <mxCell id="Z2MXEbsXXXG4tPmna7cn-8" value="" style="ellipse;whiteSpace=wrap;html=1;" parent="1" vertex="1">
          <mxGeometry x="1645" y="615" width="130" height="90" as="geometry" />
        </mxCell>
        <mxCell id="Z2MXEbsXXXG4tPmna7cn-7" value="&lt;strong data-end=&quot;1759&quot; data-start=&quot;1744&quot;&gt;Course_Code&lt;/strong&gt;" style="ellipse;whiteSpace=wrap;html=1;" parent="1" vertex="1">
          <mxGeometry x="1650" y="620" width="120" height="80" as="geometry" />
        </mxCell>
        <mxCell id="Z2MXEbsXXXG4tPmna7cn-9" value="" style="endArrow=none;html=1;rounded=0;exitX=0.75;exitY=1;exitDx=0;exitDy=0;entryX=0.5;entryY=0;entryDx=0;entryDy=0;" parent="1" source="GtYsG2Aw3nbuE8PqTHed-289" target="Z2MXEbsXXXG4tPmna7cn-8" edge="1">
          <mxGeometry width="50" height="50" relative="1" as="geometry">
            <mxPoint x="1663" y="580" as="sourcePoint" />
            <mxPoint x="1611" y="627" as="targetPoint" />
          </mxGeometry>
        </mxCell>
        <mxCell id="Z2MXEbsXXXG4tPmna7cn-10" value="" style="endArrow=none;html=1;rounded=0;exitX=1;exitY=0.75;exitDx=0;exitDy=0;entryX=0;entryY=0;entryDx=0;entryDy=0;" parent="1" source="GtYsG2Aw3nbuE8PqTHed-289" target="Z2MXEbsXXXG4tPmna7cn-6" edge="1">
          <mxGeometry width="50" height="50" relative="1" as="geometry">
            <mxPoint x="1723" y="580" as="sourcePoint" />
            <mxPoint x="1720" y="625" as="targetPoint" />
          </mxGeometry>
        </mxCell>
        <mxCell id="Z2MXEbsXXXG4tPmna7cn-11" value="" style="endArrow=none;html=1;rounded=0;exitX=1;exitY=0.5;exitDx=0;exitDy=0;entryX=0;entryY=0.5;entryDx=0;entryDy=0;" parent="1" source="GtYsG2Aw3nbuE8PqTHed-289" target="Z2MXEbsXXXG4tPmna7cn-5" edge="1">
          <mxGeometry width="50" height="50" relative="1" as="geometry">
            <mxPoint x="1760" y="513" as="sourcePoint" />
            <mxPoint x="1825" y="560" as="targetPoint" />
          </mxGeometry>
        </mxCell>
      </root>
    </mxGraphModel>
  </diagram>
</mxfile>
